<?xml version="1.0" encoding="UTF-8" standalone="no"?>
<svg
   version="1.1"
   width="600"
   height="600"
   viewBox="0 0 20000 20000"
   id="svg34"
   sodipodi:docname="Siemens_star.svg"
   inkscape:version="1.1.2 (0a00cf5339, 2022-02-04)"
   inkscape:export-filename="/tmp/siemens_star.png"
   inkscape:export-xdpi="56"
   inkscape:export-ydpi="56"
   xmlns:inkscape="http://www.inkscape.org/namespaces/inkscape"
   xmlns:sodipodi="http://sodipodi.sourceforge.net/DTD/sodipodi-0.dtd"
   xmlns="http://www.w3.org/2000/svg"
   xmlns:svg="http://www.w3.org/2000/svg">
  <defs
     id="defs38" />
  <sodipodi:namedview
     id="namedview36"
     pagecolor="#ffffff"
     bordercolor="#666666"
     borderopacity="1.0"
     inkscape:pageshadow="2"
     inkscape:pageopacity="0.0"
     inkscape:pagecheckerboard="0"
     showgrid="false"
     inkscape:zoom="0.84734963"
     inkscape:cx="413.05264"
     inkscape:cy="354.6352"
     inkscape:window-width="1680"
     inkscape:window-height="1008"
     inkscape:window-x="1920"
     inkscape:window-y="21"
     inkscape:window-maximized="1"
     inkscape:current-layer="svg34"
     fit-margin-top="0"
     fit-margin-left="0"
     fit-margin-right="0"
     fit-margin-bottom="0" />
  <rect
     style="fill:#ffffff;stroke-width:86.6667;stroke-miterlimit:5.1"
     id="rect2380"
     width="20000.002"
     height="20000"
     x="3.5007848e-05"
     y="3.5007848e-05"
     inkscape:export-filename="/tmp/siemens_star.png"
     inkscape:export-xdpi="56"
     inkscape:export-ydpi="56" />
  <path
     d="M 10000,10000 V 3.5007848e-5 A 10000,10000 0 0 1 11951,192.00004 Z"
     style="fill:#000000"
     id="path2" />
  <path
     d="M 10000,10000 13827,761.00004 A 10000,10000 0 0 1 15556,1685 Z"
     style="fill:#000000"
     id="path4" />
  <path
     d="m 10000,10000 7071,-7071 a 10000,10000 0 0 1 1244,1515 z"
     style="fill:#000000"
     id="path6" />
  <path
     d="m 10000,10000 9239,-3827 a 10000,10000 0 0 1 569,1876 z"
     style="fill:#000000"
     id="path8" />
  <path
     d="m 10000,10000 h 10000 a 10000,10000 0 0 1 -192,1951 z"
     style="fill:#000000"
     id="path10" />
  <path
     d="m 10000,10000 9239,3827 a 10000,10000 0 0 1 -924,1729 z"
     style="fill:#000000"
     id="path12" />
  <path
     d="m 10000,10000 7071,7071 a 10000,10000 0 0 1 -1515,1244 z"
     style="fill:#000000"
     id="path14" />
  <path
     d="m 10000,10000 3827,9239 a 10000,10000 0 0 1 -1876,569 z"
     style="fill:#000000"
     id="path16" />
  <path
     d="M 10000,10000 V 20000 A 10000,10000 0 0 1 8049,19808 Z"
     style="fill:#000000"
     id="path18" />
  <path
     d="M 10000,10000 6173,19239 A 10000,10000 0 0 1 4444,18315 Z"
     style="fill:#000000"
     id="path20" />
  <path
     d="M 10000,10000 2929,17071 A 10000,10000 0 0 1 1685,15556 Z"
     style="fill:#000000"
     id="path22" />
  <path
     d="M 10000,10000 761.00004,13827 a 10000,10000 0 0 1 -569,-1876 z"
     style="fill:#000000"
     id="path24" />
  <path
     d="M 10000,10000 H 3.5007848e-5 A 10000,10000 0 0 1 192.00004,8049 Z"
     style="fill:#000000"
     id="path26" />
  <path
     d="M 10000,10000 761.00004,6173 A 10000,10000 0 0 1 1685,4444 Z"
     style="fill:#000000"
     id="path28" />
  <path
     d="M 10000,10000 2929,2929 A 10000,10000 0 0 1 4444,1685 Z"
     style="fill:#000000"
     id="path30" />
  <rect
     style="fill:#ffffff;stroke-width:4.44215;stroke-miterlimit:5.1"
     id="rect877-35-6-2-9-2-7"
     width="10.416667"
     height="16666.666"
     x="6283.3335"
     y="1666.6666" />
  <path
     d="M 10000,10000 6173,761.00004 a 10000,10000 0 0 1 1876,-569 z"
     style="fill:#000000"
     id="path32" />
  <rect
     style="fill:#ffffff;stroke-width:87.0483;stroke-miterlimit:5.1"
     id="rect877"
     width="3333.3333"
     height="20000"
     x="3.5007848e-05"
     y="3.5007848e-05" />
  <rect
     style="fill:#ffffff;stroke-width:25.1287;stroke-miterlimit:5.1"
     id="rect877-35"
     width="333.33334"
     height="16666.666"
     x="5000"
     y="1666.6666" />
  <rect
     style="fill:#ffffff;stroke-width:35.5373;stroke-miterlimit:5.1"
     id="rect877-35-1"
     width="666.66669"
     height="16666.666"
     x="3666.667"
     y="1666.6666" />
  <rect
     style="fill:#ffffff;stroke-width:17.7687;stroke-miterlimit:5.1"
     id="rect877-35-6"
     width="166.66667"
     height="16666.666"
     x="5666.6665"
     y="1666.6666" />
  <rect
     style="fill:#ffffff;stroke-width:12.5644;stroke-miterlimit:5.1"
     id="rect877-35-6-2"
     width="83.333336"
     height="16666.666"
     x="6000"
     y="1666.6666" />
  <rect
     style="fill:#ffffff;stroke-width:8.8843;stroke-miterlimit:5.1"
     id="rect877-35-6-2-9"
     width="41.666668"
     height="16666.666"
     x="6166.6665"
     y="1666.6666" />
  <rect
     style="fill:#ffffff;stroke-width:6.28215;stroke-miterlimit:5.1"
     id="rect877-35-6-2-9-2"
     width="20.833334"
     height="16666.666"
     x="6250"
     y="1666.6666" />
  <rect
     style="fill:#ffffff;stroke-width:87.0483;stroke-miterlimit:5.1"
     id="rect877-3"
     width="3333.3333"
     height="20000"
     x="16666.666"
     y="3.5007848e-05" />
  <rect
     style="fill:#ffffff;stroke-width:61.5525;stroke-miterlimit:5.1"
     id="rect877-3-7"
     width="20000"
     height="1666.6666"
     x="3.5007848e-05"
     y="3.5007848e-05" />
  <rect
     style="fill:#ffffff;stroke-width:61.5525;stroke-miterlimit:5.1"
     id="rect877-3-7-5"
     width="20000"
     height="1666.6666"
     x="0.0010115703"
     y="18333.334" />
  <circle
     style="fill:#ffffff;stroke-width:86.6667;stroke-miterlimit:5.1"
     id="path1495"
     cx="12666.667"
     cy="13333.333"
     r="3333.3333" />
  <circle
     style="fill:#ffffff;stroke-width:86.6667;stroke-miterlimit:5.1"
     id="path1495-9"
     cx="14017.195"
     cy="7113.3862"
     r="1666.6666" />
  <circle
     style="fill:#000000;stroke-width:67.9432;stroke-miterlimit:5.1"
     id="path1495-0"
     cx="12697.116"
     cy="13346.845"
     r="1666.6666" />
  <circle
     style="fill:#000000;stroke-width:67.9432;stroke-miterlimit:5.1"
     id="path1495-0-3"
     cx="14012.05"
     cy="7171.3687"
     r="833.33331" />
</svg>
